<?xml version="1.0" encoding="UTF-8" standalone="no"?>
<svg
   xmlns:dc="http://purl.org/dc/elements/1.1/"
   xmlns:cc="http://creativecommons.org/ns#"
   xmlns:rdf="http://www.w3.org/1999/02/22-rdf-syntax-ns#"
   xmlns:svg="http://www.w3.org/2000/svg"
   xmlns="http://www.w3.org/2000/svg"
   xmlns:sodipodi="http://sodipodi.sourceforge.net/DTD/sodipodi-0.dtd"
   xmlns:inkscape="http://www.inkscape.org/namespaces/inkscape"
   version="1.0"
   width="1064.000000pt"
   height="1280.000000pt"
   viewBox="0 0 1064.000000 1280.000000"
   preserveAspectRatio="xMidYMid meet"
   id="svg116"
   sodipodi:docname="timer.svg"
   inkscape:version="0.92.3 (2405546, 2018-03-11)">
  <metadata
     id="metadata122">
    <rdf:RDF>
      <cc:Work
         rdf:about="">
        <dc:format>image/svg+xml</dc:format>
        <dc:type
           rdf:resource="http://purl.org/dc/dcmitype/StillImage" />
        <dc:title />
      </cc:Work>
    </rdf:RDF>
  </metadata>
  <defs
     id="defs120" />
  <sodipodi:namedview
     pagecolor="#ffffff"
     bordercolor="#666666"
     borderopacity="1"
     objecttolerance="10"
     gridtolerance="10"
     guidetolerance="10"
     inkscape:pageopacity="0"
     inkscape:pageshadow="2"
     inkscape:window-width="1280"
     inkscape:window-height="996"
     id="namedview118"
     showgrid="false"
     inkscape:zoom="0.49453125"
     inkscape:cx="729.01053"
     inkscape:cy="856.67001"
     inkscape:window-x="1920"
     inkscape:window-y="0"
     inkscape:window-maximized="1"
     inkscape:current-layer="svg116"
     showguides="true"
     inkscape:guide-bbox="true">
    <sodipodi:guide
       position="611.18485,471.65878"
       orientation="0,1"
       id="guide13"
       inkscape:locked="false" />
  </sodipodi:namedview>
  <path
     style="fill:#d4aa00;stroke:none;stroke-width:0.1"
     inkscape:connector-curvature="0"
     id="path86"
     d="m 447.98342,-3.3497 c -6.5,2.3 -12.4,7.7 -15.5,14.3 -1.9,3.8 -2,7.1 -2,67.3 0,70 -0.3,66.5 6.7,74.2 6.8,7.6 9.8,8.4 33.1,8.8 l 20.2,0.4 v 25.8 25.8 l -7.2,0.7 c -104.8,9.6 -203.6,49.1 -284.1,113.7 -5.3,4.3 -10.1,7.8 -10.5,7.8 -0.4,0 -3.6,-2.8 -7,-6.3 l -6.2,-6.2 9.1,-9 c 11.4,-11.4 13.1,-14 13.1,-20.9 0,-4.1 -0.6,-6.5 -2.5,-9.8 -3.7,-6.3 -60.4,-62.4 -64.9,-64.3 -4.9,-2 -10.4,-1.9 -15.3,0.4 -4.9,2.3 -79.900004,77.2 -81.400004,81.4 -1.6,4 -1.3,10.2 0.4,14.5 2,4.6 57.9,61.1 64.3,64.9 4.800004,2.9 13.100004,3.4 17.400004,1.2 1.2,-0.6 6.8,-5.6 12.3,-11 l 10.1,-9.9 5.9,6 5.9,5.9 -8.5,8.8 c -48.200004,50.3 -88.600004,117.4 -113.900004,189.5 -23.4999997,66.4 -33.1999997,145.4 -26.9999997,218.3 12.9999997,150.8 89.0999997,288.2 210.5000037,379.7 79.9,60.3 173.2,95.8 275.5,105 18.7,1.6 69.3,1.6 88,0 91.4,-8.2 173.5,-36.6 248,-85.7 114.5,-75.5 195.49998,-191.5 225.99998,-323.5 20.3,-87.7 18.2,-178.1 -6.2,-265.8 -13.6,-49.2 -38.2,-102.8 -67.29998,-147.1 -34.5,-52.5 -81.5,-101.7 -132.5,-138.6 -57.7,-41.8 -122.3,-71.2 -191.5,-87.3 -23.7,-5.6 -54.4,-10.4 -75.2,-11.8 l -10.3,-0.7 v -25.8 -25.7 l 20.3,-0.4 c 23.2,-0.4 26.2,-1.2 33,-8.8 7,-7.7 6.7,-4.2 6.7,-74.2 0,-71 0.3,-67.5 -7.4,-75.1 -8,-7.7 -1.9,-7.2 -89.1,-7.4 -52.7,-0.1 -79,0.2 -81,0.9 z m 119.2,296.3 c 97.1,8.3 185.4,45.2 258.8,108.4 73.2,63 125.4,149.9 145.9,243.1 8.1,36.8 10.1,56.2 10.1,99 0,38 -0.8,48.9 -6.1,79 -19.1,109.9 -79.7,209.9 -168.9,279 -57.2,44.3 -127,75.2 -197.5,87.4 -31.1,5.4 -40,6.1 -79,6.1 -39,0 -47.9,-0.7 -79,-6.1 -111.8,-19.4 -214.3,-82.5 -283.1,-174.4 -48.6,-64.8 -77.400004,-137.4 -87.600004,-221 -2.6,-20.8 -2.5,-79.3 0,-100 8.9,-71.7 30.300004,-132.6 67.000004,-191 54.3,-86.2 138.2,-152.8 234.2,-186 59,-20.4 124.3,-28.7 185.2,-23.5 z" />
  <text
     xml:space="preserve"
     style="font-style:normal;font-variant:normal;font-weight:normal;font-stretch:normal;font-size:16px;line-height:1.25;font-family:Digital-7;-inkscape-font-specification:Digital-7;letter-spacing:0px;word-spacing:0px;fill:#000000;fill-opacity:1;stroke:none;stroke-width:0.75"
     x="258.98511"
     y="608.68164"
     id="text140"><tspan
       sodipodi:role="line"
       id="tspan138"
       x="258.98511"
       y="608.68164"
       style="font-style:normal;font-variant:normal;font-weight:normal;font-stretch:normal;font-size:120px;font-family:Digital-7;-inkscape-font-specification:Digital-7;stroke-width:0.75">Cronometro</tspan></text>
  <rect
     style="fill:#d4aa00;fill-opacity:1;stroke:none;stroke-width:0.73877829;stroke-miterlimit:4;stroke-dasharray:none;stroke-opacity:1"
     id="rect152"
     width="194.87793"
     height="165.73213"
     x="430.39462"
     y="-4.2335081"
     ry="21.531639" />
  <rect
     style="fill:#d4aa00;fill-opacity:1;stroke:none;stroke-width:0.55997717;stroke-miterlimit:4;stroke-dasharray:none;stroke-opacity:1"
     id="rect152-3"
     width="139.93471"
     height="132.60393"
     x="-196.85678"
     y="226.41975"
     ry="17.227676"
     transform="matrix(0.71150303,-0.70268303,0.69791832,0.71617736,0,0)" />
  <g
     id="g83"
     transform="translate(131.41082)">
    <text
       id="text144"
       y="806.83118"
       x="81.720711"
       style="font-style:normal;font-variant:normal;font-weight:normal;font-stretch:normal;font-size:16px;line-height:1.25;font-family:Digital-7;-inkscape-font-specification:Digital-7;letter-spacing:0px;word-spacing:0px;fill:#000000;fill-opacity:1;stroke:none;stroke-width:0.75"
       xml:space="preserve"><tspan
         style="font-style:normal;font-variant:normal;font-weight:normal;font-stretch:normal;font-size:200px;font-family:Digital-7;-inkscape-font-specification:Digital-7;stroke-width:0.75"
         y="806.83118"
         x="81.720711"
         id="tspan142"
         sodipodi:role="line">00</tspan></text>
    <text
       id="text17"
       y="811.37445"
       x="242.65405"
       style="font-style:normal;font-variant:normal;font-weight:normal;font-stretch:normal;font-size:200px;line-height:1.25;font-family:Digital-7;-inkscape-font-specification:Digital-7;letter-spacing:0px;word-spacing:0px;fill:#000000;fill-opacity:1;stroke:none;stroke-width:0.75"
       xml:space="preserve"><tspan
         style="font-style:normal;font-variant:normal;font-weight:normal;font-stretch:normal;font-size:200px;font-family:Digital-7;-inkscape-font-specification:Digital-7;stroke-width:0.75"
         y="811.37445"
         x="242.65405"
         id="tspan15"
         sodipodi:role="line">:</tspan></text>
    <text
       id="text144-0"
       y="805.66547"
       x="312.10162"
       style="font-style:normal;font-variant:normal;font-weight:normal;font-stretch:normal;font-size:15.99999905px;line-height:1.25;font-family:Digital-7;-inkscape-font-specification:Digital-7;letter-spacing:0px;word-spacing:0px;fill:#000000;fill-opacity:1;stroke:none;stroke-width:0.75"
       xml:space="preserve"><tspan
         style="font-style:normal;font-variant:normal;font-weight:normal;font-stretch:normal;font-size:200px;font-family:Digital-7;-inkscape-font-specification:Digital-7;stroke-width:0.75"
         y="805.66547"
         x="312.10162"
         id="tspan142-5"
         sodipodi:role="line">00</tspan></text>
    <text
       id="text144-0-0"
       y="805.59912"
       x="537.53296"
       style="font-style:normal;font-variant:normal;font-weight:normal;font-stretch:normal;font-size:15.99999905px;line-height:1.25;font-family:Digital-7;-inkscape-font-specification:Digital-7;letter-spacing:0px;word-spacing:0px;fill:#000000;fill-opacity:1;stroke:none;stroke-width:0.75"
       xml:space="preserve"><tspan
         style="font-style:normal;font-variant:normal;font-weight:normal;font-stretch:normal;font-size:200px;font-family:Digital-7;-inkscape-font-specification:Digital-7;stroke-width:0.75"
         y="805.59912"
         x="537.53296"
         id="tspan142-5-2"
         sodipodi:role="line">00</tspan></text>
    <text
       id="text17-9"
       y="811.33374"
       x="470.73032"
       style="font-style:normal;font-variant:normal;font-weight:normal;font-stretch:normal;font-size:200px;line-height:1.25;font-family:Digital-7;-inkscape-font-specification:Digital-7;letter-spacing:0px;word-spacing:0px;fill:#000000;fill-opacity:1;stroke:none;stroke-width:0.75"
       xml:space="preserve"><tspan
         style="font-style:normal;font-variant:normal;font-weight:normal;font-stretch:normal;font-size:200px;font-family:Digital-7;-inkscape-font-specification:Digital-7;stroke-width:0.75"
         y="811.33374"
         x="470.73032"
         id="tspan15-4"
         sodipodi:role="line">:</tspan></text>
  </g>
  <text
     xml:space="preserve"
     style="font-style:normal;font-variant:normal;font-weight:normal;font-stretch:normal;font-size:15.99999905px;line-height:1.25;font-family:Digital-7;-inkscape-font-specification:Digital-7;letter-spacing:0px;word-spacing:0px;fill:#000000;fill-opacity:1;stroke:none;stroke-width:0.75"
     x="422.81323"
     y="934.05945"
     id="text140-3"><tspan
       sodipodi:role="line"
       id="tspan138-5"
       x="422.81323"
       y="934.05945"
       style="font-style:normal;font-variant:normal;font-weight:normal;font-stretch:normal;font-size:120px;font-family:Digital-7;-inkscape-font-specification:Digital-7;stroke-width:0.75">0000</tspan></text>
  <text
     xml:space="preserve"
     style="font-style:normal;font-variant:normal;font-weight:normal;font-stretch:normal;font-size:56px;line-height:1.25;font-family:Digital-7;-inkscape-font-specification:Digital-7;letter-spacing:0px;word-spacing:0px;fill:#ffffff;fill-opacity:1;stroke:none;stroke-width:0.75;"
     x="464.13757"
     y="96.959831"
     id="text105"><tspan
       sodipodi:role="line"
       id="tspan103"
       x="464.13757"
       y="96.959831"
       style="font-style:normal;font-variant:normal;font-weight:normal;font-stretch:normal;font-size:56px;font-family:Digital-7;-inkscape-font-specification:Digital-7;stroke-width:0.75;fill:#ffffff;">start</tspan></text>
  <text
     xml:space="preserve"
     style="font-style:normal;font-weight:normal;font-size:16px;line-height:1.25;font-family:sans-serif;letter-spacing:0px;word-spacing:0px;fill:#ffffff;fill-opacity:1;stroke:none;stroke-width:0.75"
     x="-158.44394"
     y="317.64594"
     id="text109"
     transform="rotate(-41.94471)"><tspan
       sodipodi:role="line"
       id="tspan107"
       x="-158.44394"
       y="317.64594"
       style="font-style:normal;font-variant:normal;font-weight:normal;font-stretch:normal;font-size:48px;font-family:Digital-7;-inkscape-font-specification:Digital-7;fill:#ffffff;stroke-width:0.75">stop</tspan></text>
  <rect
     style="fill:#808080;fill-opacity:1;stroke:none;stroke-width:1.10234368;stroke-miterlimit:4;stroke-dasharray:none;stroke-opacity:1"
     id="rect111"
     width="191.09006"
     height="65.213272"
     x="436.45499"
     y="1041.8958"
     ry="11.25" />
  <text
     xml:space="preserve"
     style="font-style:normal;font-weight:normal;font-size:16px;line-height:1.25;font-family:sans-serif;letter-spacing:0px;word-spacing:0px;fill:#ffffff;fill-opacity:1;stroke:none;stroke-width:0.75"
     x="486.50287"
     y="1087.5933"
     id="text115"><tspan
       sodipodi:role="line"
       id="tspan113"
       x="486.50287"
       y="1087.5933"
       style="font-style:normal;font-variant:normal;font-weight:normal;font-stretch:normal;font-size:40px;font-family:Digital-7;-inkscape-font-specification:Digital-7;fill:#ffffff;stroke-width:0.75">Reset</tspan></text>
</svg>
